<?xml version="1.0" encoding="utf-8" ?>
<svg baseProfile="full" height="290" version="1.1" width="290" xmlns="http://www.w3.org/2000/svg" xmlns:ev="http://www.w3.org/2001/xml-events" xmlns:xlink="http://www.w3.org/1999/xlink"><defs /><rect fill="rgb(100%,100%,100%)" height="30" stroke="rgb(0%,0%,0%)" width="30" x="10" y="10" /><rect fill="rgb(100%,100%,100%)" height="30" stroke="rgb(0%,0%,0%)" width="30" x="40" y="10" /><text font-family="Arial" font-size="20px" text-anchor="middle" x="55.0" y="32.0">7</text><rect fill="rgb(100%,100%,100%)" height="30" stroke="rgb(0%,0%,0%)" width="30" x="70" y="10" /><text font-family="Arial" font-size="20px" text-anchor="middle" x="85.0" y="32.0">8</text><rect fill="rgb(100%,100%,100%)" height="30" stroke="rgb(0%,0%,0%)" width="30" x="100" y="10" /><rect fill="rgb(100%,100%,100%)" height="30" stroke="rgb(0%,0%,0%)" width="30" x="130" y="10" /><rect fill="rgb(100%,100%,100%)" height="30" stroke="rgb(0%,0%,0%)" width="30" x="160" y="10" /><text font-family="Arial" font-size="20px" text-anchor="middle" x="175.0" y="32.0">1</text><rect fill="rgb(100%,100%,100%)" height="30" stroke="rgb(0%,0%,0%)" width="30" x="190" y="10" /><rect fill="rgb(100%,100%,100%)" height="30" stroke="rgb(0%,0%,0%)" width="30" x="220" y="10" /><rect fill="rgb(100%,100%,100%)" height="30" stroke="rgb(0%,0%,0%)" width="30" x="250" y="10" /><rect fill="rgb(100%,100%,100%)" height="30" stroke="rgb(0%,0%,0%)" width="30" x="10" y="40" /><rect fill="rgb(100%,100%,100%)" height="30" stroke="rgb(0%,0%,0%)" width="30" x="40" y="40" /><text font-family="Arial" font-size="20px" text-anchor="middle" x="55.0" y="62.0">6</text><rect fill="rgb(100%,100%,100%)" height="30" stroke="rgb(0%,0%,0%)" width="30" x="70" y="40" /><rect fill="rgb(100%,100%,100%)" height="30" stroke="rgb(0%,0%,0%)" width="30" x="100" y="40" /><rect fill="rgb(100%,100%,100%)" height="30" stroke="rgb(0%,0%,0%)" width="30" x="130" y="40" /><text font-family="Arial" font-size="20px" text-anchor="middle" x="145.0" y="62.0">5</text><rect fill="rgb(100%,100%,100%)" height="30" stroke="rgb(0%,0%,0%)" width="30" x="160" y="40" /><rect fill="rgb(100%,100%,100%)" height="30" stroke="rgb(0%,0%,0%)" width="30" x="190" y="40" /><rect fill="rgb(100%,100%,100%)" height="30" stroke="rgb(0%,0%,0%)" width="30" x="220" y="40" /><text font-family="Arial" font-size="20px" text-anchor="middle" x="235.0" y="62.0">1</text><rect fill="rgb(100%,100%,100%)" height="30" stroke="rgb(0%,0%,0%)" width="30" x="250" y="40" /><text font-family="Arial" font-size="20px" text-anchor="middle" x="265.0" y="62.0">2</text><rect fill="rgb(100%,100%,100%)" height="30" stroke="rgb(0%,0%,0%)" width="30" x="10" y="70" /><rect fill="rgb(100%,100%,100%)" height="30" stroke="rgb(0%,0%,0%)" width="30" x="40" y="70" /><text font-family="Arial" font-size="20px" text-anchor="middle" x="55.0" y="92.0">2</text><rect fill="rgb(100%,100%,100%)" height="30" stroke="rgb(0%,0%,0%)" width="30" x="70" y="70" /><rect fill="rgb(100%,100%,100%)" height="30" stroke="rgb(0%,0%,0%)" width="30" x="100" y="70" /><rect fill="rgb(100%,100%,100%)" height="30" stroke="rgb(0%,0%,0%)" width="30" x="130" y="70" /><rect fill="rgb(100%,100%,100%)" height="30" stroke="rgb(0%,0%,0%)" width="30" x="160" y="70" /><text font-family="Arial" font-size="20px" text-anchor="middle" x="175.0" y="92.0">3</text><rect fill="rgb(100%,100%,100%)" height="30" stroke="rgb(0%,0%,0%)" width="30" x="190" y="70" /><text font-family="Arial" font-size="20px" text-anchor="middle" x="205.0" y="92.0">8</text><rect fill="rgb(100%,100%,100%)" height="30" stroke="rgb(0%,0%,0%)" width="30" x="220" y="70" /><text font-family="Arial" font-size="20px" text-anchor="middle" x="235.0" y="92.0">7</text><rect fill="rgb(100%,100%,100%)" height="30" stroke="rgb(0%,0%,0%)" width="30" x="250" y="70" /><text font-family="Arial" font-size="20px" text-anchor="middle" x="265.0" y="92.0">5</text><rect fill="rgb(100%,100%,100%)" height="30" stroke="rgb(0%,0%,0%)" width="30" x="10" y="100" /><text font-family="Arial" font-size="20px" text-anchor="middle" x="25.0" y="122.0">2</text><rect fill="rgb(100%,100%,100%)" height="30" stroke="rgb(0%,0%,0%)" width="30" x="40" y="100" /><rect fill="rgb(100%,100%,100%)" height="30" stroke="rgb(0%,0%,0%)" width="30" x="70" y="100" /><text font-family="Arial" font-size="20px" text-anchor="middle" x="85.0" y="122.0">5</text><rect fill="rgb(100%,100%,100%)" height="30" stroke="rgb(0%,0%,0%)" width="30" x="100" y="100" /><rect fill="rgb(100%,100%,100%)" height="30" stroke="rgb(0%,0%,0%)" width="30" x="130" y="100" /><text font-family="Arial" font-size="20px" text-anchor="middle" x="145.0" y="122.0">3</text><rect fill="rgb(100%,100%,100%)" height="30" stroke="rgb(0%,0%,0%)" width="30" x="160" y="100" /><rect fill="rgb(100%,100%,100%)" height="30" stroke="rgb(0%,0%,0%)" width="30" x="190" y="100" /><text font-family="Arial" font-size="20px" text-anchor="middle" x="205.0" y="122.0">1</text><rect fill="rgb(100%,100%,100%)" height="30" stroke="rgb(0%,0%,0%)" width="30" x="220" y="100" /><rect fill="rgb(100%,100%,100%)" height="30" stroke="rgb(0%,0%,0%)" width="30" x="250" y="100" /><text font-family="Arial" font-size="20px" text-anchor="middle" x="265.0" y="122.0">8</text><rect fill="rgb(100%,100%,100%)" height="30" stroke="rgb(0%,0%,0%)" width="30" x="10" y="130" /><rect fill="rgb(100%,100%,100%)" height="30" stroke="rgb(0%,0%,0%)" width="30" x="40" y="130" /><rect fill="rgb(100%,100%,100%)" height="30" stroke="rgb(0%,0%,0%)" width="30" x="70" y="130" /><text font-family="Arial" font-size="20px" text-anchor="middle" x="85.0" y="152.0">1</text><rect fill="rgb(100%,100%,100%)" height="30" stroke="rgb(0%,0%,0%)" width="30" x="100" y="130" /><rect fill="rgb(100%,100%,100%)" height="30" stroke="rgb(0%,0%,0%)" width="30" x="130" y="130" /><rect fill="rgb(100%,100%,100%)" height="30" stroke="rgb(0%,0%,0%)" width="30" x="160" y="130" /><rect fill="rgb(100%,100%,100%)" height="30" stroke="rgb(0%,0%,0%)" width="30" x="190" y="130" /><text font-family="Arial" font-size="20px" text-anchor="middle" x="205.0" y="152.0">5</text><rect fill="rgb(100%,100%,100%)" height="30" stroke="rgb(0%,0%,0%)" width="30" x="220" y="130" /><rect fill="rgb(100%,100%,100%)" height="30" stroke="rgb(0%,0%,0%)" width="30" x="250" y="130" /><rect fill="rgb(100%,100%,100%)" height="30" stroke="rgb(0%,0%,0%)" width="30" x="10" y="160" /><text font-family="Arial" font-size="20px" text-anchor="middle" x="25.0" y="182.0">6</text><rect fill="rgb(100%,100%,100%)" height="30" stroke="rgb(0%,0%,0%)" width="30" x="40" y="160" /><rect fill="rgb(100%,100%,100%)" height="30" stroke="rgb(0%,0%,0%)" width="30" x="70" y="160" /><text font-family="Arial" font-size="20px" text-anchor="middle" x="85.0" y="182.0">4</text><rect fill="rgb(100%,100%,100%)" height="30" stroke="rgb(0%,0%,0%)" width="30" x="100" y="160" /><rect fill="rgb(100%,100%,100%)" height="30" stroke="rgb(0%,0%,0%)" width="30" x="130" y="160" /><text font-family="Arial" font-size="20px" text-anchor="middle" x="145.0" y="182.0">9</text><rect fill="rgb(100%,100%,100%)" height="30" stroke="rgb(0%,0%,0%)" width="30" x="160" y="160" /><rect fill="rgb(100%,100%,100%)" height="30" stroke="rgb(0%,0%,0%)" width="30" x="190" y="160" /><text font-family="Arial" font-size="20px" text-anchor="middle" x="205.0" y="182.0">7</text><rect fill="rgb(100%,100%,100%)" height="30" stroke="rgb(0%,0%,0%)" width="30" x="220" y="160" /><rect fill="rgb(100%,100%,100%)" height="30" stroke="rgb(0%,0%,0%)" width="30" x="250" y="160" /><text font-family="Arial" font-size="20px" text-anchor="middle" x="265.0" y="182.0">3</text><rect fill="rgb(100%,100%,100%)" height="30" stroke="rgb(0%,0%,0%)" width="30" x="10" y="190" /><text font-family="Arial" font-size="20px" text-anchor="middle" x="25.0" y="212.0">8</text><rect fill="rgb(100%,100%,100%)" height="30" stroke="rgb(0%,0%,0%)" width="30" x="40" y="190" /><text font-family="Arial" font-size="20px" text-anchor="middle" x="55.0" y="212.0">4</text><rect fill="rgb(100%,100%,100%)" height="30" stroke="rgb(0%,0%,0%)" width="30" x="70" y="190" /><text font-family="Arial" font-size="20px" text-anchor="middle" x="85.0" y="212.0">7</text><rect fill="rgb(100%,100%,100%)" height="30" stroke="rgb(0%,0%,0%)" width="30" x="100" y="190" /><text font-family="Arial" font-size="20px" text-anchor="middle" x="115.0" y="212.0">2</text><rect fill="rgb(100%,100%,100%)" height="30" stroke="rgb(0%,0%,0%)" width="30" x="130" y="190" /><rect fill="rgb(100%,100%,100%)" height="30" stroke="rgb(0%,0%,0%)" width="30" x="160" y="190" /><rect fill="rgb(100%,100%,100%)" height="30" stroke="rgb(0%,0%,0%)" width="30" x="190" y="190" /><rect fill="rgb(100%,100%,100%)" height="30" stroke="rgb(0%,0%,0%)" width="30" x="220" y="190" /><text font-family="Arial" font-size="20px" text-anchor="middle" x="235.0" y="212.0">5</text><rect fill="rgb(100%,100%,100%)" height="30" stroke="rgb(0%,0%,0%)" width="30" x="250" y="190" /><rect fill="rgb(100%,100%,100%)" height="30" stroke="rgb(0%,0%,0%)" width="30" x="10" y="220" /><text font-family="Arial" font-size="20px" text-anchor="middle" x="25.0" y="242.0">9</text><rect fill="rgb(100%,100%,100%)" height="30" stroke="rgb(0%,0%,0%)" width="30" x="40" y="220" /><text font-family="Arial" font-size="20px" text-anchor="middle" x="55.0" y="242.0">5</text><rect fill="rgb(100%,100%,100%)" height="30" stroke="rgb(0%,0%,0%)" width="30" x="70" y="220" /><rect fill="rgb(100%,100%,100%)" height="30" stroke="rgb(0%,0%,0%)" width="30" x="100" y="220" /><rect fill="rgb(100%,100%,100%)" height="30" stroke="rgb(0%,0%,0%)" width="30" x="130" y="220" /><text font-family="Arial" font-size="20px" text-anchor="middle" x="145.0" y="242.0">7</text><rect fill="rgb(100%,100%,100%)" height="30" stroke="rgb(0%,0%,0%)" width="30" x="160" y="220" /><rect fill="rgb(100%,100%,100%)" height="30" stroke="rgb(0%,0%,0%)" width="30" x="190" y="220" /><rect fill="rgb(100%,100%,100%)" height="30" stroke="rgb(0%,0%,0%)" width="30" x="220" y="220" /><text font-family="Arial" font-size="20px" text-anchor="middle" x="235.0" y="242.0">8</text><rect fill="rgb(100%,100%,100%)" height="30" stroke="rgb(0%,0%,0%)" width="30" x="250" y="220" /><rect fill="rgb(100%,100%,100%)" height="30" stroke="rgb(0%,0%,0%)" width="30" x="10" y="250" /><rect fill="rgb(100%,100%,100%)" height="30" stroke="rgb(0%,0%,0%)" width="30" x="40" y="250" /><rect fill="rgb(100%,100%,100%)" height="30" stroke="rgb(0%,0%,0%)" width="30" x="70" y="250" /><rect fill="rgb(100%,100%,100%)" height="30" stroke="rgb(0%,0%,0%)" width="30" x="100" y="250" /><text font-family="Arial" font-size="20px" text-anchor="middle" x="115.0" y="272.0">5</text><rect fill="rgb(100%,100%,100%)" height="30" stroke="rgb(0%,0%,0%)" width="30" x="130" y="250" /><rect fill="rgb(100%,100%,100%)" height="30" stroke="rgb(0%,0%,0%)" width="30" x="160" y="250" /><rect fill="rgb(100%,100%,100%)" height="30" stroke="rgb(0%,0%,0%)" width="30" x="190" y="250" /><text font-family="Arial" font-size="20px" text-anchor="middle" x="205.0" y="272.0">4</text><rect fill="rgb(100%,100%,100%)" height="30" stroke="rgb(0%,0%,0%)" width="30" x="220" y="250" /><text font-family="Arial" font-size="20px" text-anchor="middle" x="235.0" y="272.0">6</text><rect fill="rgb(100%,100%,100%)" height="30" stroke="rgb(0%,0%,0%)" width="30" x="250" y="250" /><rect fill="none" height="90" stroke="black" stroke-width="3" width="90" x="10" y="10" /><rect fill="none" height="90" stroke="black" stroke-width="3" width="90" x="100" y="10" /><rect fill="none" height="90" stroke="black" stroke-width="3" width="90" x="190" y="10" /><rect fill="none" height="90" stroke="black" stroke-width="3" width="90" x="10" y="100" /><rect fill="none" height="90" stroke="black" stroke-width="3" width="90" x="100" y="100" /><rect fill="none" height="90" stroke="black" stroke-width="3" width="90" x="190" y="100" /><rect fill="none" height="90" stroke="black" stroke-width="3" width="90" x="10" y="190" /><rect fill="none" height="90" stroke="black" stroke-width="3" width="90" x="100" y="190" /><rect fill="none" height="90" stroke="black" stroke-width="3" width="90" x="190" y="190" /></svg>